# xmcd
#
# Track frame offsets: 
#        150
#        11000
#        33215
#        52735
#        87550
#        109558
#        124630
#        138933
#        155438
#
# Disc length: 2257 seconds
#
# Revision: 0
# Processed by: cddbd v1.5.2PL0 Copyright (c) Steve Scherf et al.
# Submitted via: ExactAudioCopyFreeDBPlugin 1.0
#
DISCID=6408cf09
DTITLE=Savoy Brown - Raw Sienna
DYEAR=1900
DGENRE=
TTITLE0=A Hard Way To Go
TTITLE1=A Little More Wine
TTITLE2=I'm Crying
TTITLE3=Is That So
TTITLE4=Master Hare
TTITLE5=Needle And Spoon
TTITLE6=Stay While The Night Is Young
TTITLE7=That Same Feelin'
TTITLE8=When I Was A Young Boy
EXTD=
EXTT0=
EXTT1=
EXTT2=
EXTT3=
EXTT4=
EXTT5=
EXTT6=
EXTT7=
EXTT8=
PLAYORDER=
